# Blender v2.68 (sub 0) OBJ File: ''
# www.blender.org
mtllib brdf-test.mtl
o light_Plane.008
v 1.166211 2.052083 -1.000000
v 1.166210 2.052083 1.000000
v 2.833790 0.947918 -1.000000
v 2.833790 0.947917 1.000000
vn -0.552083 -0.833790 0.000000
vn -0.552082 -0.833790 -0.000000
usemtl light
s off
f 2//1 1//1 4//1
f 1//2 3//2 4//2
o Plane.007
v 2.000000 0.000000 4.000000
v 0.000000 0.000000 4.000000
v 2.000000 0.000000 2.000000
v 0.000000 0.000000 2.000000
vt 0.003058 1.000000
vt 0.000000 0.003058
vt 1.000000 0.996942
vt 0.996942 0.000000
vn 0.000000 1.000000 -0.000000
usemtl diffuse.003
s off
f 6/1/3 5/2/3 8/3/3
f 5/2/3 7/4/3 8/3/3
o Plane.006
v 0.000000 0.000000 4.000000
v -2.000000 0.000000 4.000000
v 0.000000 0.000000 2.000000
v -2.000000 0.000000 2.000000
vt 0.003058 1.000000
vt 0.000000 0.003058
vt 1.000000 0.996942
vt 0.996942 0.000000
usemtl diffuse
s off
f 10/5/3 9/6/3 12/7/3
f 9/6/3 11/8/3 12/7/3
o Plane.005
v 2.000000 0.000000 2.000000
v 0.000000 0.000000 2.000000
v 2.000000 0.000000 0.000000
v 0.000000 0.000000 0.000000
vt 0.003058 1.000000
vt 0.000000 0.003058
vt 1.000000 0.996942
vt 0.996942 0.000000
usemtl microfacet.001
s off
f 14/9/3 13/10/3 16/11/3
f 13/10/3 15/12/3 16/11/3
o Plane.004
v 0.000000 0.000000 2.000000
v -2.000000 0.000000 2.000000
v 0.000000 0.000000 0.000000
v -2.000000 0.000000 0.000000
vt 0.003058 1.000000
vt 0.000000 0.003058
vt 1.000000 0.996942
vt 0.996942 0.000000
usemtl microfacet.002
s off
f 18/13/3 17/14/3 20/15/3
f 17/14/3 19/16/3 20/15/3
o Plane.003
v 2.000000 0.000000 0.000000
v 0.000000 0.000000 0.000000
v 2.000000 0.000000 -2.000000
v 0.000000 0.000000 -2.000000
vt 0.003058 1.000000
vt 0.000000 0.003058
vt 1.000000 0.996942
vt 0.996942 0.000000
usemtl microfacet
s off
f 22/17/3 21/18/3 24/19/3
f 21/18/3 23/20/3 24/19/3
o Plane.002
v 0.000000 0.000000 0.000000
v -2.000000 0.000000 0.000000
v 0.000000 0.000000 -2.000000
v -2.000000 0.000000 -2.000000
vt 0.003058 1.000000
vt 0.000000 0.003058
vt 1.000000 0.996942
vt 0.996942 0.000000
usemtl specular
s off
f 26/21/3 25/22/3 28/23/3
f 25/22/3 27/24/3 28/23/3
o Plane.001
v 2.000000 0.000000 -2.000000
v 0.000000 0.000000 -2.000000
v 2.000000 0.000000 -4.000000
v 0.000000 0.000000 -4.000000
vt 0.003058 1.000000
vt 0.000000 0.003058
vt 1.000000 0.996942
vt 0.996942 0.000000
usemtl diffuse.002
s off
f 30/25/3 29/26/3 32/27/3
f 29/26/3 31/28/3 32/27/3
o Plane
v 0.000000 0.000000 -2.000000
v -2.000000 0.000000 -2.000000
v 0.000000 0.000000 -4.000000
v -2.000000 0.000000 -4.000000
vt 0.003058 1.000000
vt 0.000000 0.003058
vt 1.000000 0.996942
vt 0.996942 0.000000
usemtl diffuse.001
s off
f 34/29/3 33/30/3 36/31/3
f 33/30/3 35/32/3 36/31/3
