# Blender v2.79 (sub 0) OBJ File: ''
# www.blender.org
mtllib mis.mtl
o Plane.008
v -11.025046 -0.388667 8.137691
v 11.032817 -0.388667 8.137691
v -11.025046 -0.388667 -13.920173
v 11.032817 -0.388667 -13.920173
vn 0.0000 1.0000 0.0000
g Plane.008_Plane.008_plane
usemtl plane
s off
f 2//1 3//1 1//1
f 2//1 4//1 3//1
o Plane.007
v -2.093697 4.388309 -7.395344
v -1.593697 4.388309 -7.395344
v -2.093697 4.888309 -7.395344
v -1.593697 4.888309 -7.395344
vn 0.0000 0.0000 1.0000
g Plane.007_Plane.007_light_mid_small
usemtl light_mid_small
s off
f 6//2 7//2 5//2
f 6//2 8//2 7//2
o Plane.006
v -5.000000 0.496590 -5.703489
v 5.000000 0.496589 -5.703489
v -5.000000 1.433411 -7.470511
v 5.000000 1.433410 -7.470510
vn 0.0000 0.8835 0.4684
g Plane.006_Plane.006_microfacet_high
usemtl microfacet_high
s off
f 10//3 11//3 9//3
f 10//3 12//3 11//3
o Plane.005
v 3.006303 3.628309 -7.395344
v 5.006303 3.628309 -7.395344
v 3.006303 5.628309 -7.395344
v 5.006303 5.628309 -7.395344
vn 0.0000 0.0000 1.0000
g Plane.005_Plane.005_light_big
usemtl light_big
s off
f 14//4 15//4 13//4
f 14//4 16//4 15//4
o Plane.004
v 0.306303 4.138309 -7.395344
v 1.306303 4.138309 -7.395344
v 0.306303 5.138309 -7.395344
v 1.306303 5.138309 -7.395344
vn 0.0000 0.0000 1.0000
g Plane.004_Plane.004_light_mid_big
usemtl light_mid_big
s off
f 18//5 19//5 17//5
f 18//5 20//5 19//5
o Plane.003
v -4.086197 4.565809 -7.395344
v -3.961197 4.565809 -7.395344
v -4.086197 4.690809 -7.395344
v -3.961197 4.690809 -7.395344
vn 0.0000 0.0000 1.0000
g Plane.003_Plane.003_light_small
usemtl light_small
s off
f 22//6 23//6 21//6
f 22//6 24//6 23//6
o Plane.002
v -5.000000 0.035049 -3.725630
v 5.000000 0.035049 -3.725630
v -5.000000 0.484951 -5.674370
v 5.000000 0.484951 -5.674370
vn 0.0000 0.9744 0.2250
g Plane.002_Plane.002_microfacet_mid_high
usemtl microfacet_mid_high
s off
f 26//7 27//7 25//7
f 26//7 28//7 27//7
o Plane.001
v -5.000000 0.014170 -1.675347
v 5.000000 0.014170 -1.675347
v -5.000000 0.049075 -3.675042
v 5.000000 0.049075 -3.675042
vn 0.0000 0.9998 0.0175
g Plane.001_Plane.001_microfacet_mid_low
usemtl microfacet_mid_low
s off
f 30//8 31//8 29//8
f 30//8 32//8 31//8
o Plane
v -5.000000 0.353648 0.334808
v 5.000000 0.353648 0.334808
v -5.000000 0.006352 -1.634808
v 5.000000 0.006352 -1.634808
vn 0.0000 0.9848 -0.1736
g Plane_Plane_microfacet_low
usemtl microfacet_low
s off
f 34//9 35//9 33//9
f 34//9 36//9 35//9
